<svg xmlns="http://www.w3.org/2000/svg" width="85" height="85" viewBox="0 0 85 85"><g><g><path fill="#ffd200" d="M42.271 0c23.346 0 42.272 18.926 42.272 42.272s-18.926 42.27-42.272 42.27C18.926 84.543 0 65.619 0 42.273 0 18.926 18.926 0 42.27 0z"/></g><g><path fill="#533e34" d="M54.456 44.396c.225 1.488.009 2.834-.34 4.15-1.064 4.019-4.391 6.52-8.611 6.56-2.356.024-4.575-.487-6.612-1.64-3.685-2.086-4.917-5.734-4.463-9.803.532-4.752 3.33-7.746 7.73-9.467 6.952-2.72 17.668-1.498 23.795 4.535 3.104 3.055 4.252 6.767 3.994 10.946-.418 6.775-4.343 11.26-10.072 14.48-2.979 1.674-6.237 2.543-9.594 3.15-5.854 1.058-11.666.993-17.306-.94-9.187-3.146-15.324-9.322-17.336-18.751-2.16-10.127 1.146-18.564 9.494-24.944 4.816-3.683 10.423-5.255 16.442-5.618 7.826-.472 15.206 1.328 22.389 4.175.401.16.524.34.39.785-1.019 3.386-2 6.783-3.022 10.168-.076.253-.369.442-.56.66-.217-.222-.534-.407-.636-.671-1.73-4.49-4.389-8.249-8.755-10.601-3.782-2.038-7.839-2.475-11.988-1.43-3.922.987-6.287 3.721-7.759 7.293-1.326 3.218-1.89 6.606-2.124 10.043-.326 4.775-.297 9.548.544 14.284.499 2.81 1.285 5.529 2.793 7.997 2.12 3.467 5.213 5.407 9.337 5.69 3.663.25 7.002-.528 9.711-3.125 1.972-1.89 3.12-4.263 3.934-6.808 1.286-4.02 1.286-8.049-.125-12.025-.81-2.283-2.225-4.13-4.627-5.043-1.172-.447-2.393-.466-3.587-.187-2.02.472-3.182 2.158-3.021 4.241.135 1.749 1.724 3.224 3.65 3.431 2.06.221 3.967-.209 5.746-1.237.15-.087.31-.158.589-.298z"/></g></g></svg>