<svg xmlns="http://www.w3.org/2000/svg" width="35" height="34" viewBox="0 0 35 34"><g><g><path fill="#687080" d="M34.054 17.001v1.072l-.002 1.081-.005 1.097-.015 1.121-.032 1.15-.062 1.182-.108 1.213-.176 1.236-.272 1.24-.399 1.215-.553 1.152-.725 1.043-.896.896-1.043.725-1.152.553-1.216.399-1.24.271-1.236.176-1.213.108-1.182.062-1.15.033-1.121.014-1.098.006-1.08.001h-2.146l-1.08-.001-1.098-.006-1.121-.014-1.15-.033-1.182-.062-1.214-.108-1.235-.176-1.24-.271-1.216-.399-1.152-.553-1.044-.725-.895-.896-.726-1.043-.553-1.152-.398-1.216-.272-1.24-.176-1.235-.108-1.213-.062-1.182-.032-1.15-.015-1.12-.006-1.098-.001-1.08v-2.145l.001-1.081.006-1.097.015-1.121.032-1.15.062-1.182.108-1.213.176-1.236.272-1.24.398-1.215.553-1.152.726-1.043.895-.896 1.044-.725 1.152-.553L6.612.626l1.24-.271L9.087.178l1.214-.107 1.182-.062 1.15-.033 1.12-.014 1.098-.006 1.081-.001h2.145l1.081.001 1.098.006 1.12.014 1.15.033L23.71.07l1.213.107 1.236.177 1.24.271 1.216.399 1.152.553 1.043.725.896.896.725 1.043.553 1.152.399 1.215.272 1.24.176 1.236.108 1.213L34 11.48l.032 1.15.015 1.12.005 1.098.002 1.08zm-24.532-.798c-.51.015-.872.383-.871.879 0 .495.362.866.874.877.443.009.887.01 1.331 0a.87.87 0 0 0 .853-.88.875.875 0 0 0-.855-.876c-.218-.007-.437-.001-.655-.001-.226 0-.451-.006-.677 0zm15.156 1.756a.875.875 0 0 0 .853-.878.87.87 0 0 0-.853-.877c-.444-.01-.888-.01-1.332 0-.51.01-.872.381-.872.877 0 .495.362.862.872.878.218.007.437.001.655.001.226 0 .451.006.677 0zm3.479 2.378v-.396c-.136-.355-.352-.628-.752-.676a1.217 1.217 0 0 0-.43.038c-.981.246-1.96.504-2.94.748a.476.476 0 0 1-.326-.033c-1.592-.945-3.18-1.9-4.767-2.852-.036-.021-.069-.047-.121-.085.075-.05.131-.092.191-.128 1.55-.93 3.103-1.857 4.65-2.791a.462.462 0 0 1 .39-.053c.936.246 1.879.468 2.81.73.637.18 1.114-.032 1.295-.662v-.352c-.158-.438-.495-.62-.93-.72-.814-.186-1.62-.41-2.455-.626.041-.179.078-.348.12-.515.186-.752.378-1.504.56-2.257.124-.51-.14-.959-.627-1.088-.471-.126-.934.153-1.064.661-.26 1.014-.512 2.03-.76 3.045a.485.485 0 0 1-.24.337c-1.522.906-3.04 1.82-4.56 2.73-.05.03-.101.058-.173.098-.008-.064-.019-.117-.019-.17 0-1.817-.002-3.636.005-5.453 0-.095.052-.213.12-.281.694-.71 1.374-1.44 2.105-2.11.591-.543.508-1.395-.306-1.659h-.35c-.206.144-.434.264-.613.437-.562.541-1.105 1.103-1.656 1.656-.055.056-.114.108-.193.183-.175-.18-.339-.355-.507-.525-.437-.44-.866-.889-1.316-1.315-.18-.17-.408-.292-.614-.435h-.35c-.026.013-.05.029-.077.039-.663.246-.838.977-.343 1.484.71.727 1.428 1.446 2.15 2.16.141.139.2.276.2.477-.009 1.766-.005 3.533-.005 5.3v.263c-.078-.039-.135-.064-.188-.096-1.551-.93-3.101-1.862-4.655-2.788a.461.461 0 0 1-.234-.315 227.162 227.162 0 0 0-.765-3.067c-.132-.509-.595-.783-1.068-.655-.484.131-.742.58-.62 1.092.108.456.225.91.337 1.364.11.44.218.88.326 1.321.005.02-.001.043-.003.088-.515.133-1.034.269-1.553.402-.36.093-.72.183-1.08.275-.525.134-.825.58-.712 1.058.12.51.59.786 1.131.65.989-.248 1.976-.502 2.961-.76a.457.457 0 0 1 .388.056c1.542.93 3.088 1.855 4.633 2.782.062.036.122.076.202.127-.058.042-.1.078-.146.105-1.576.947-3.15 1.893-4.73 2.832a.473.473 0 0 1-.324.04c-.996-.247-1.99-.505-2.983-.762-.354-.09-.67-.027-.92.247a.832.832 0 0 0-.183.878c.109.316.34.5.66.581l2.667.68c-.014.079-.022.148-.039.215-.21.852-.425 1.704-.632 2.557-.124.513.135.962.618 1.093.472.127.94-.148 1.07-.654.263-1.02.51-2.045.772-3.065.027-.102.091-.225.176-.276 1.59-.964 3.186-1.918 4.78-2.874.025-.015.052-.025.099-.048.005.073.014.133.014.194 0 1.818.003 3.636-.005 5.455 0 .107-.058.24-.134.318-.689.707-1.363 1.43-2.09 2.096-.587.536-.514 1.39.305 1.658h.35c.206-.144.435-.264.614-.436.567-.547 1.115-1.113 1.671-1.672.05-.05.104-.097.18-.168.137.144.265.282.397.415.473.477.938.961 1.424 1.424.18.172.407.293.613.437h.35c.026-.014.05-.03.077-.04.66-.243.838-.977.344-1.483a151.628 151.628 0 0 0-2.12-2.13.699.699 0 0 1-.232-.55c.012-1.737.006-3.473.006-5.21v-.274l.81.483c1.32.79 2.637 1.584 3.96 2.37a.438.438 0 0 1 .217.302c.247 1.009.498 2.016.751 3.024.134.535.596.835 1.077.707a.866.866 0 0 0 .635-1.065c-.207-.86-.424-1.718-.637-2.577-.017-.069-.03-.138-.047-.22.838-.215 1.65-.442 2.472-.629.432-.098.75-.294.91-.716zm-6.394-9.653c.301-.576-.138-1.26-.837-1.258a.79.79 0 0 0-.638.353c-.271.416-.536.837-.779 1.27-.222.396-.076.896.3 1.138.39.25.907.172 1.167-.214.282-.416.554-.844.787-1.29zm-7.876-.908c-.254-.376-.765-.457-1.15-.218-.384.24-.54.73-.32 1.131.242.442.51.87.789 1.29.21.315.615.424.973.301a.931.931 0 0 0 .613-.843c-.037-.125-.052-.264-.115-.373-.254-.435-.508-.872-.79-1.288zm-1.464 13.682c-.314.58.123 1.28.83 1.278a.754.754 0 0 0 .61-.322c.291-.437.575-.882.823-1.345.215-.402.038-.89-.356-1.118-.383-.223-.88-.132-1.128.237-.277.412-.543.834-.78 1.27zm8.853 1.227a.935.935 0 0 0 .602-.83c-.036-.125-.048-.264-.11-.373-.257-.442-.514-.886-.801-1.308-.25-.366-.754-.444-1.133-.214-.389.236-.552.725-.334 1.126.243.449.515.885.799 1.308.21.313.623.417.977.29z"/></g></g></svg>